<?xml version="1.0" encoding="utf-8"?>
<!-- Generator: Adobe Illustrator 25.2.1, SVG Export Plug-In . SVG Version: 6.00 Build 0)  -->
<svg version="1.1" id="Layer_1" xmlns="http://www.w3.org/2000/svg" xmlns:xlink="http://www.w3.org/1999/xlink" x="0px" y="0px"
	 viewBox="0 0 106 106" style="enable-background:new 0 0 106 106;" xml:space="preserve">
<style type="text/css">
	.st0{fill:#009045;}
	.st1{fill:#333333;}
	.st2{fill:#FFFFFF;}
	.st3{fill:#B0EF8F;}
</style>
<g>
	<circle class="st3" cx="52.87" cy="52" r="50"/>
	<g>
		<g>
			<path class="st0" d="M69.77,54.17c-0.17,0.5-0.31,1.02-0.52,1.5c-0.29,0.67-0.88,0.92-1.47,0.68c-0.56-0.23-0.84-0.82-0.58-1.47
				c0.32-0.81,0.37-1.65,0.36-2.5c-0.02-1.25,0.03-2.5-0.07-3.74c-0.13-1.7-1.42-2.88-3.12-3c-0.16-0.01-0.31-0.01-0.47-0.01
				c-13.87,0-27.75,0-41.62,0c-1.8,0-3.05,0.88-3.5,2.45c-0.05,0.18-0.09,0.37-0.1,0.56c-0.02,1.63-0.11,3.26-0.01,4.88
				c0.12,2.04,1.52,3.21,3.62,3.21c3.82,0.01,7.64,0,11.46,0c2.19,0,4.38,0,6.56,0c0.52,0,0.97,0.11,1.23,0.61
				c0.31,0.59,0.02,1.32-0.62,1.52c-0.24,0.08-0.51,0.09-0.77,0.09c-5.97,0-11.95,0-17.92,0c-1.75,0-3,0.9-3.45,2.45
				c-0.05,0.18-0.09,0.37-0.1,0.56c-0.02,1.63-0.11,3.26-0.01,4.88c0.13,2.04,1.52,3.21,3.62,3.21c4.58,0.01,9.17,0,13.75,0
				c0.21,0,0.42,0,0.62,0.02c0.55,0.07,0.96,0.5,0.99,1.04c0.02,0.5-0.33,0.97-0.86,1.09c-0.22,0.05-0.45,0.05-0.67,0.05
				c-4.62,0-9.24-0.05-13.86,0.02c-2.97,0.04-5.42-2.13-5.77-4.68c-0.01-0.04-0.05-0.08-0.08-0.13c0-1.98,0-3.95,0-5.93
				c0.34-1.46,0.97-2.75,2.29-3.72c-0.38-0.35-0.74-0.64-1.05-0.98c-0.69-0.76-0.96-1.72-1.24-2.68c0-1.98,0-3.95,0-5.93
				c0.34-1.46,0.97-2.75,2.29-3.72c-0.38-0.35-0.74-0.64-1.05-0.98c-0.69-0.76-0.96-1.72-1.24-2.68c0-1.98,0-3.95,0-5.93
				c0.36-0.85,0.61-1.77,1.08-2.55c2.15-3.53,4.36-7.02,6.54-10.53c0.66-1.06,1.51-1.9,2.67-2.37c0.48-0.19,0.99-0.31,1.48-0.45
				c9.97,0,19.94,0,29.91,0c0.04,0.03,0.08,0.08,0.12,0.09c1.8,0.31,3.07,1.33,4.01,2.86c1.8,2.92,3.62,5.82,5.43,8.73
				c0.84,1.35,1.77,2.64,2.11,4.24c0,1.98,0,3.95,0,5.93c-0.15,0.45-0.21,0.95-0.45,1.35c-0.5,0.83-1.08,1.61-1.57,2.33
				c0.49,0.7,1.07,1.45,1.54,2.25c0.25,0.43,0.33,0.96,0.49,1.45C69.77,50.22,69.77,52.19,69.77,54.17z M43.1,32.33
				c-6.89,0-13.79,0-20.68,0c-0.31,0-0.63,0-0.93,0.05c-1.53,0.23-2.69,1.39-2.78,2.92c-0.09,1.62-0.07,3.25-0.04,4.88
				c0.01,0.45,0.14,0.94,0.33,1.34c0.68,1.41,1.9,1.91,3.41,1.91c13.79-0.01,27.57,0,41.36,0c0.12,0,0.24,0,0.36,0
				c1.77-0.08,3.23-1.21,3.33-2.77c0.11-1.74,0.05-3.49,0.05-5.24c0-0.2-0.04-0.41-0.1-0.61c-0.43-1.57-1.71-2.47-3.48-2.47
				C56.99,32.33,50.04,32.33,43.1,32.33z M64.67,30.12c-0.12-0.2-0.19-0.33-0.27-0.46c-1.37-2.19-2.75-4.37-4.09-6.58
				c-0.78-1.28-1.87-1.87-3.36-1.86c-9.24,0.01-18.48,0.01-27.71,0c-1.49,0-2.58,0.58-3.36,1.86c-1.34,2.21-2.73,4.38-4.09,6.58
				c-0.09,0.14-0.16,0.29-0.26,0.47C35.92,30.12,50.26,30.12,64.67,30.12z"/>
			<path class="st0" d="M69.77,65.4c-0.15,0.56-0.26,1.14-0.46,1.69c-1.09,3.07-3.92,5.14-7.18,5.16c-6.01,0.04-12.02,0.03-18.03,0
				c-2.67-0.01-5.06-2.14-5.39-4.67c-0.36-2.86,1.23-5.37,3.95-6.16c0.38-0.11,0.49-0.29,0.56-0.67c0.66-3.72,2.74-6.38,6.26-7.75
				c3.49-1.36,6.79-0.8,9.76,1.48c0.69,0.53,1.26,1.24,1.84,1.89c0.22,0.25,0.41,0.39,0.77,0.38c3.91-0.08,7.23,2.73,7.82,6.59
				c0.02,0.1,0.06,0.19,0.1,0.29C69.77,64.22,69.77,64.81,69.77,65.4z M53.24,70.05c2.83,0,5.66-0.01,8.49,0
				c1.98,0.01,3.55-0.76,4.76-2.33c1.63-2.12,1.29-5.52-0.72-7.28c-1.3-1.13-2.77-1.69-4.5-1.41c-0.7,0.11-1.22-0.12-1.56-0.75
				c-0.09-0.17-0.2-0.33-0.31-0.48c-1.62-2.18-3.79-3.37-6.51-3.26c-4.21,0.16-7.21,3.15-7.55,7.34c-0.1,1.18-0.35,1.44-1.51,1.54
				c-1.93,0.17-3.35,2.18-2.86,4.06c0.43,1.63,1.7,2.56,3.52,2.57C47.41,70.06,50.32,70.05,53.24,70.05z"/>
			<path class="st0" d="M53.04,50.08c-2.79,0-5.59,0-8.38,0c-1.02,0-1.56-0.4-1.56-1.12c0.01-0.73,0.54-1.11,1.57-1.11
				c5.62,0,11.24,0,16.86,0c1.02,0,1.56,0.4,1.56,1.12c-0.01,0.73-0.54,1.11-1.57,1.11C58.69,50.09,55.86,50.08,53.04,50.08z"/>
			<path class="st0" d="M24.19,54.5c-1.85,0-3.33-1.5-3.31-3.35c0.02-1.82,1.52-3.3,3.33-3.29c1.81,0.01,3.3,1.5,3.32,3.31
				C27.55,52.98,26.02,54.5,24.19,54.5z M25.28,51.23c0.02-0.61-0.43-1.1-1.03-1.13c-0.62-0.03-1.15,0.46-1.16,1.07
				c-0.01,0.57,0.49,1.1,1.07,1.12C24.74,52.31,25.26,51.82,25.28,51.23z"/>
			<path class="st0" d="M24.19,67.81c-1.85,0-3.33-1.5-3.32-3.34c0.02-1.82,1.51-3.3,3.32-3.3c1.81,0.01,3.3,1.49,3.33,3.3
				C27.55,66.29,26.03,67.81,24.19,67.81z M24.18,63.41c-0.59,0.01-1.09,0.51-1.09,1.1c0,0.57,0.52,1.09,1.1,1.1
				c0.61,0.01,1.11-0.52,1.1-1.13C25.27,63.86,24.78,63.4,24.18,63.41z"/>
			<path class="st0" d="M53.06,36.77c-2.81,0-5.62,0-8.43,0c-0.99,0-1.52-0.38-1.53-1.1c-0.01-0.73,0.53-1.13,1.55-1.13
				c5.64,0,11.28,0,16.92,0c0.99,0,1.52,0.38,1.53,1.1c0.01,0.73-0.54,1.13-1.55,1.13C58.72,36.77,55.89,36.77,53.06,36.77z"/>
			<path class="st0" d="M53.1,41.19c-2.76,0-5.52,0-8.28,0c-0.12,0-0.24,0-0.36,0c-0.84-0.01-1.36-0.44-1.35-1.11
				c0.01-0.67,0.53-1.1,1.37-1.1c5.75,0,11.5,0,17.24,0c0.21,0,0.42,0.02,0.61,0.08c0.49,0.15,0.8,0.64,0.75,1.11
				c-0.05,0.5-0.42,0.91-0.93,0.98c-0.2,0.03-0.42,0.03-0.62,0.03C58.72,41.2,55.91,41.19,53.1,41.19z"/>
			<path class="st0" d="M24.17,41.19c-1.85-0.01-3.32-1.52-3.29-3.36c0.03-1.82,1.55-3.31,3.34-3.27c1.83,0.04,3.3,1.51,3.31,3.32
				C27.54,39.69,26.01,41.2,24.17,41.19z M24.19,36.78c-0.59,0-1.09,0.49-1.1,1.08c-0.01,0.57,0.5,1.1,1.08,1.11
				c0.6,0.02,1.12-0.5,1.12-1.11C25.28,37.26,24.8,36.78,24.19,36.78z"/>
		</g>
		<g>
			<path class="st0" d="M44.65,66.57c1.3-1.34,2.55-2.63,3.86-3.98c4.2,2.93,8.37,5.84,12.6,8.79c0.29-0.37,0.55-0.69,0.8-1.01
				c3.94-5.04,8.15-9.85,12.72-14.33c4.51-4.42,9.23-8.58,14.46-12.14c0.67-0.46,1.34-0.7,2.17-0.67c1.73,0.06,3.47,0.02,5.31,0.02
				c-0.1,0.16-0.14,0.25-0.21,0.31C90.23,49.07,85,55.39,80.07,61.99c-6.43,8.61-12.31,17.59-17.81,26.82
				c-0.34,0.58-0.68,1.16-1.07,1.83C56.04,82.28,50.3,74.41,44.65,66.57z"/>
		</g>
	</g>
</g>
</svg>
