<?xml version="1.0" encoding="utf-8"?>
<!-- Generator: Adobe Illustrator 25.2.1, SVG Export Plug-In . SVG Version: 6.00 Build 0)  -->
<svg version="1.1" id="Layer_1" xmlns="http://www.w3.org/2000/svg" xmlns:xlink="http://www.w3.org/1999/xlink" x="0px" y="0px"
	 viewBox="0 0 658 196" style="enable-background:new 0 0 658 196;" xml:space="preserve">
<style type="text/css">
	.st0{fill:#009045;}
	.st1{fill:#333333;}
	.st2{fill:#FFFFFF;}
	.st3{fill:#B0EF8F;}
	.st4{font-family:'Helvetica-Black';}
	.st5{font-size:60.1278px;}
</style>
<g>
	<circle class="st3" cx="95.23" cy="98.02" r="88.36"/>
	<g>
		<g>
			<path class="st0" d="M125.09,101.85c-0.3,0.89-0.55,1.8-0.92,2.66c-0.51,1.19-1.55,1.63-2.6,1.21c-0.99-0.4-1.48-1.45-1.03-2.59
				c0.57-1.44,0.66-2.91,0.63-4.41c-0.04-2.2,0.06-4.42-0.12-6.61c-0.24-3-2.5-5.08-5.51-5.3c-0.28-0.02-0.55-0.02-0.83-0.02
				c-24.52,0-49.04,0-73.56,0c-3.17,0-5.39,1.55-6.19,4.32c-0.09,0.32-0.17,0.66-0.17,0.99c-0.03,2.88-0.19,5.76-0.02,8.63
				c0.22,3.6,2.68,5.67,6.39,5.67c6.75,0.01,13.5,0,20.25,0c3.87,0,7.73,0.01,11.6,0c0.91,0,1.71,0.19,2.17,1.08
				c0.54,1.04,0.03,2.33-1.1,2.68c-0.43,0.13-0.91,0.15-1.36,0.15c-10.56,0.01-21.11,0-31.67,0.01c-3.09,0-5.31,1.58-6.1,4.32
				c-0.09,0.32-0.17,0.66-0.17,0.99c-0.03,2.88-0.19,5.76-0.02,8.63c0.22,3.6,2.68,5.67,6.39,5.67c8.1,0.01,16.2,0,24.3,0.01
				c0.37,0,0.74,0,1.1,0.04c0.98,0.12,1.69,0.89,1.74,1.83c0.04,0.88-0.59,1.72-1.52,1.93c-0.38,0.09-0.79,0.09-1.19,0.1
				c-8.16,0.01-16.33-0.09-24.49,0.04c-5.26,0.08-9.57-3.76-10.2-8.26c-0.01-0.08-0.09-0.15-0.14-0.22c0-3.49,0-6.98,0-10.48
				c0.59-2.59,1.72-4.86,4.05-6.57c-0.67-0.62-1.3-1.14-1.85-1.74c-1.22-1.34-1.7-3.05-2.19-4.74c0-3.49,0-6.98,0-10.48
				c0.59-2.59,1.72-4.86,4.05-6.57c-0.67-0.62-1.3-1.14-1.85-1.74c-1.22-1.34-1.7-3.05-2.19-4.74c0-3.49,0-6.98,0-10.48
				c0.63-1.51,1.07-3.13,1.91-4.51c3.79-6.24,7.7-12.41,11.56-18.61c1.16-1.87,2.66-3.35,4.72-4.19c0.84-0.34,1.74-0.54,2.62-0.8
				c17.62,0,35.23,0,52.85,0c0.07,0.05,0.14,0.14,0.21,0.15c3.17,0.55,5.42,2.36,7.08,5.05c3.17,5.16,6.4,10.28,9.6,15.42
				c1.48,2.38,3.13,4.67,3.73,7.49c0,3.49,0,6.98,0,10.48c-0.26,0.8-0.38,1.68-0.8,2.39c-0.88,1.47-1.91,2.84-2.78,4.11
				c0.86,1.24,1.88,2.56,2.72,3.98c0.45,0.76,0.58,1.71,0.86,2.57C125.09,94.86,125.09,98.36,125.09,101.85z M77.95,63.25
				c-12.18,0-24.36,0-36.54,0c-0.55,0-1.11,0.01-1.65,0.09c-2.7,0.41-4.76,2.45-4.92,5.16c-0.17,2.87-0.12,5.75-0.07,8.63
				c0.01,0.8,0.24,1.65,0.59,2.37c1.21,2.49,3.36,3.37,6.03,3.37c24.36-0.01,48.72-0.01,73.09-0.01c0.21,0,0.43,0.01,0.64,0
				c3.12-0.15,5.71-2.14,5.88-4.9c0.2-3.08,0.08-6.18,0.09-9.26c0-0.36-0.07-0.73-0.17-1.08c-0.77-2.77-3.01-4.37-6.16-4.37
				C102.5,63.25,90.22,63.25,77.95,63.25z M116.08,59.36c-0.21-0.35-0.34-0.59-0.48-0.82c-2.41-3.87-4.86-7.72-7.23-11.62
				c-1.37-2.26-3.31-3.3-5.94-3.29c-16.32,0.02-32.65,0.02-48.97,0c-2.63,0-4.57,1.03-5.94,3.29c-2.37,3.9-4.82,7.75-7.23,11.62
				c-0.15,0.25-0.28,0.51-0.46,0.82C65.27,59.36,90.61,59.36,116.08,59.36z"/>
			<path class="st0" d="M125.09,121.7c-0.27,1-0.47,2.02-0.81,2.98c-1.93,5.42-6.93,9.09-12.69,9.12
				c-10.62,0.07-21.24,0.05-31.85,0.01c-4.72-0.02-8.95-3.77-9.52-8.26c-0.64-5.06,2.18-9.49,6.98-10.88
				c0.67-0.19,0.87-0.51,0.99-1.18c1.17-6.57,4.84-11.27,11.06-13.7c6.17-2.41,12-1.42,17.24,2.62c1.22,0.94,2.22,2.18,3.25,3.35
				c0.39,0.44,0.72,0.69,1.36,0.67c6.91-0.15,12.78,4.82,13.82,11.64c0.03,0.17,0.11,0.34,0.17,0.51
				C125.09,119.62,125.09,120.66,125.09,121.7z M95.88,129.92c5,0,10-0.01,15,0c3.49,0.01,6.28-1.35,8.41-4.12
				c2.89-3.75,2.29-9.75-1.28-12.86c-2.3-2-4.89-2.98-7.95-2.5c-1.24,0.19-2.16-0.21-2.76-1.33c-0.16-0.3-0.35-0.58-0.55-0.85
				c-2.86-3.86-6.7-5.96-11.5-5.77c-7.44,0.29-12.74,5.56-13.33,12.98c-0.17,2.08-0.62,2.54-2.67,2.72
				c-3.41,0.3-5.92,3.86-5.05,7.17c0.76,2.88,3,4.53,6.22,4.54C85.57,129.93,90.73,129.92,95.88,129.92z"/>
			<path class="st0" d="M95.52,94.63c-4.94,0-9.87,0-14.81,0c-1.8,0-2.76-0.7-2.75-1.99c0.01-1.29,0.96-1.96,2.78-1.96
				c9.93,0,19.87,0,29.8,0c1.8,0,2.76,0.7,2.75,1.99c-0.01,1.29-0.96,1.96-2.78,1.96C105.51,94.63,100.51,94.63,95.52,94.63z"/>
			<path class="st0" d="M44.53,102.44c-3.27-0.01-5.88-2.66-5.85-5.92c0.04-3.21,2.69-5.84,5.88-5.82c3.2,0.02,5.84,2.64,5.87,5.85
				C50.48,99.76,47.78,102.44,44.53,102.44z M46.48,96.66c0.04-1.08-0.76-1.95-1.82-2c-1.1-0.05-2.03,0.81-2.05,1.89
				c-0.02,1.01,0.87,1.94,1.89,1.98C45.52,98.56,46.44,97.7,46.48,96.66z"/>
			<path class="st0" d="M44.54,125.96c-3.27,0-5.89-2.65-5.86-5.91c0.03-3.21,2.68-5.84,5.87-5.83c3.2,0.01,5.83,2.63,5.88,5.84
				C50.49,123.27,47.79,125.96,44.54,125.96z M44.52,118.18c-1.04,0.01-1.93,0.9-1.92,1.94c0.01,1.02,0.92,1.93,1.94,1.94
				c1.07,0.01,1.97-0.92,1.94-2C46.45,118.98,45.59,118.16,44.52,118.18z"/>
			<path class="st0" d="M95.56,71.11c-4.97,0-9.93,0-14.9,0c-1.74,0-2.68-0.68-2.7-1.94c-0.03-1.29,0.95-2,2.73-2
				c9.96,0,19.93,0,29.89,0c1.74,0,2.68,0.68,2.7,1.94c0.03,1.29-0.95,2-2.73,2C105.56,71.11,100.56,71.11,95.56,71.11z"/>
			<path class="st0" d="M95.62,78.92c-4.88,0-9.76,0-14.64,0c-0.21,0-0.43,0-0.64,0c-1.48-0.02-2.4-0.78-2.39-1.97
				c0.02-1.19,0.93-1.94,2.43-1.94c10.16,0,20.31,0,30.47,0c0.36,0,0.74,0.04,1.09,0.14c0.86,0.26,1.42,1.12,1.33,1.97
				c-0.09,0.89-0.75,1.6-1.64,1.73c-0.36,0.05-0.73,0.05-1.1,0.05C105.57,78.92,100.6,78.92,95.62,78.92z"/>
			<path class="st0" d="M44.51,78.91c-3.27-0.02-5.87-2.68-5.82-5.94c0.05-3.21,2.75-5.85,5.91-5.79c3.24,0.07,5.83,2.67,5.85,5.87
				C50.46,76.26,47.75,78.93,44.51,78.91z M44.55,71.13c-1.05,0-1.93,0.86-1.95,1.9c-0.01,1.01,0.88,1.94,1.9,1.97
				c1.07,0.03,1.99-0.89,1.97-1.97C46.47,71.96,45.62,71.13,44.55,71.13z"/>
		</g>
		<g>
			<path class="st0" d="M80.7,123.77c2.29-2.36,4.5-4.65,6.82-7.04c7.42,5.17,14.8,10.32,22.26,15.53c0.52-0.65,0.97-1.21,1.42-1.78
				c6.97-8.91,14.39-17.41,22.48-25.32c7.97-7.8,16.32-15.16,25.56-21.46c1.19-0.81,2.37-1.23,3.84-1.18
				c3.06,0.1,6.13,0.03,9.38,0.03c-0.18,0.28-0.25,0.44-0.37,0.54c-10.84,9.76-20.09,20.93-28.8,32.59
				c-11.37,15.22-21.76,31.08-31.47,47.4c-0.61,1.02-1.2,2.05-1.89,3.23C100.82,151.52,90.68,137.61,80.7,123.77z"/>
		</g>
	</g>
</g>
<text transform="matrix(1 0 0 1 209.0625 116.8984)" class="st2 st4 st5">Status Check</text>
</svg>
